<svg width="41" height="57" viewBox="0 0 41 57" fill="none" xmlns="http://www.w3.org/2000/svg">
<path d="M20.5 0C9.19957 0 0 9.2634 0 20.6423C0 34.7712 18.3438 55.5136 19.1289 56.3821C19.8587 57.206 21.1413 57.206 21.8711 56.3821C22.6561 55.5025 41 34.7712 41 20.6423C41.011 9.2634 31.8115 0 20.5 0ZM20.5 31.0302C14.8166 31.0302 10.1837 26.3651 10.1837 20.6423C10.1837 14.9194 14.8166 10.2543 20.5 10.2543C26.1834 10.2543 30.8163 14.9194 30.8163 20.6423C30.8163 26.3651 26.1944 31.0302 20.5 31.0302Z" fill="#FD8000"/>
</svg>
