<?xml version="1.0" encoding="utf-8"?><svg xmlns="http://www.w3.org/2000/svg" xmlns:xlink="http://www.w3.org/1999/xlink"><symbol viewBox="0 0 34 35" id="add" xmlns="http://www.w3.org/2000/svg"><path d="M31.423 19.308H19.308V32A2.278 2.278 0 0 1 17 34.308 2.278 2.278 0 0 1 14.692 32V19.308H2.577A2.278 2.278 0 0 1 .269 17a2.278 2.278 0 0 1 2.308-2.308h12.115V3.154A2.278 2.278 0 0 1 17 .846a2.278 2.278 0 0 1 2.308 2.308v11.538h12.115A2.278 2.278 0 0 1 33.731 17a2.278 2.278 0 0 1-2.308 2.308z"/></symbol><symbol viewBox="0 0 27 31" id="advantages-1" xmlns="http://www.w3.org/2000/svg"><g clip-path="url(#bclip0)"><path d="M0 17.324c0-.365.362-.73.725-.73h3.443c.362 0 .725.365.725.73 0 4.74 3.805 8.57 8.516 8.57 4.712 0 8.517-3.83 8.517-8.57 0-4.742-3.805-8.57-8.517-8.57-.543 0-.906 0-1.45.181v2.371c0 .365-.18.547-.362.73-.362 0-.724 0-.906-.183L3.624 7.112a1.169 1.169 0 0 1 0-1.094l7.067-4.741c.181-.183.544-.183.725-.183.181.183.362.365.362.73v2.188h1.45c7.43 0 13.41 6.018 13.41 13.494 0 7.477-5.98 13.494-13.41 13.494C5.98 30.635 0 24.618 0 17.324z"/></g><defs><clipPath id="bclip0"><path transform="matrix(1 0 0 -1 0 31)" d="M0 0h27v31H0z"/></clipPath></defs></symbol><symbol viewBox="0 0 28 34" id="advantages-2" xmlns="http://www.w3.org/2000/svg"><path d="M27.879 5.301c-5.76 0-10.174-1.657-13.91-5.301C10.248 3.644 5.834 5.301.074 5.301c0 9.493-1.953 23.106 13.909 28.626C29.843 28.394 27.879 14.794 27.879 5.3zM12.829 22.01l-4.632-4.656 2.074-2.084 2.559 2.572 4.862-4.887 2.074 2.084-6.936 6.97z"/></symbol><symbol viewBox="0 0 31 33" id="advantages-3" xmlns="http://www.w3.org/2000/svg"><path d="M30.207 15.106c-.44-.27-1.056-.27-1.497.09l-7.838 5.305v-4.136c0-.54-.264-1.079-.793-1.349-.44-.27-1.056-.27-1.497.09l-8.102 5.575V9.171c0-.27-.264-.539-.528-.539H.528c-.264-.09-.528.18-.528.54V32.46c0 .27.264.54.528.54h29.944c.264 0 .528-.27.528-.54V16.366c0-.54-.264-.989-.793-1.259zm-12.77 10.97c0 .18-.176.36-.352.36h-2.642c-.176 0-.352-.18-.352-.36V23.38c0-.18.176-.36.352-.36h2.642c.176 0 .352.18.352.36v2.697zm9.952 0c0 .18-.176.36-.352.36h-2.642c-.176 0-.352-.18-.352-.36V23.38c0-.18.176-.36.352-.36h2.642c.176 0 .352.18.352.36v2.697zM.528 6.384h9.424c.264 0 .528-.18.528-.54V1.53C10.48.719 9.864 0 9.071 0H1.497C.617 0 0 .63 0 1.529v4.406c0 .27.264.45.528.45z"/></symbol><symbol viewBox="0 0 38 39" id="advantages-4" xmlns="http://www.w3.org/2000/svg"><path d="M23.517 34.085v1.143c0 .903-.672 1.666-1.558 1.786l-.285 1.033A1.305 1.305 0 0 1 20.41 39h-2.832c-.59 0-1.11-.391-1.263-.953l-.275-1.033c-.886-.14-1.568-.883-1.568-1.796v-1.143c0-.612.499-1.104 1.12-1.104h6.804c.621.01 1.12.502 1.12 1.114zm5.235-15.367a9.472 9.472 0 0 1-2.74 6.67 8.75 8.75 0 0 0-2.393 4.785 1.605 1.605 0 0 1-1.6 1.344H15.97c-.794 0-1.477-.562-1.589-1.334a8.807 8.807 0 0 0-2.414-4.795c-1.66-1.705-2.699-4.012-2.72-6.56-.06-5.346 4.258-9.67 9.687-9.71 5.418-.04 9.818 4.273 9.818 9.6zM20.105 12.9c0-.592-.489-1.084-1.1-1.084-3.88 0-7.038 3.11-7.038 6.932 0 .591.49 1.083 1.1 1.083.601 0 1.1-.482 1.1-1.083 0-2.628 2.18-4.765 4.838-4.765.611 0 1.1-.482 1.1-1.083zm-1.1-6.942c.601 0 1.1-.481 1.1-1.083V1.083c0-.591-.489-1.083-1.1-1.083-.611 0-1.1.481-1.1 1.083v3.792c0 .602.489 1.083 1.1 1.083zM6.05 18.718c0-.592-.489-1.084-1.1-1.084H1.1c-.6 0-1.1.482-1.1 1.084 0 .591.489 1.083 1.1 1.083h3.85c.611 0 1.1-.482 1.1-1.083zm30.85-1.084h-3.85c-.6 0-1.1.482-1.1 1.084 0 .591.489 1.083 1.1 1.083h3.85c.6 0 1.1-.482 1.1-1.083 0-.602-.489-1.084-1.1-1.084zM8.29 27.735l-2.729 2.689a1.078 1.078 0 0 0 .774 1.845c.275 0 .56-.1.774-.31l2.73-2.689a1.078 1.078 0 0 0 0-1.535 1.088 1.088 0 0 0-1.548 0zm20.645-17.724c.275 0 .56-.1.774-.311l2.73-2.688a1.078 1.078 0 0 0 0-1.535 1.119 1.119 0 0 0-1.558 0l-2.73 2.688a1.078 1.078 0 0 0 0 1.535c.224.21.5.31.784.31zM8.291 9.69c.213.21.499.31.774.31s.56-.1.774-.31a1.078 1.078 0 0 0 0-1.535l-2.73-2.678a1.119 1.119 0 0 0-1.558 0 1.078 1.078 0 0 0 0 1.535L8.29 9.69zm21.418 18.045a1.119 1.119 0 0 0-1.558 0 1.078 1.078 0 0 0 0 1.535l2.73 2.688c.214.211.499.311.774.311s.56-.1.774-.31a1.078 1.078 0 0 0 0-1.535l-2.72-2.689z"/></symbol><symbol viewBox="0 0 36 36" id="advantages-5" xmlns="http://www.w3.org/2000/svg"><g clip-path="url(#fclip0)"><path d="M14.839 14.766v9.555a8.667 8.667 0 0 1 3.164 1.02 8.94 8.94 0 0 1 3.165-1.02v-9.555h-6.33zm2.103 5.266v-2.11h2.11v2.11h-2.11zM16.942 12.656v-2.11a4.222 4.222 0 0 0-4.22-4.218H9.557v2.11h3.165v4.218h4.22zM19.051 0h-2.11v2.11h2.11V0zM14.839 2.11h-2.11v2.109h2.11v-2.11zM23.27 2.11h-2.109v2.109h2.11v-2.11zM12.729 24.25v-9.484h-2.11a5.28 5.28 0 0 0-5.274-5.274H0v2.11h2.11v2.109H0v2.11h2.11v2.109H0v2.11h2.215a5.33 5.33 0 0 0 .95 2.108H0v2.11h12.729v-.007zM19.052 12.656h4.22V8.437h3.164V6.329H23.27a4.223 4.223 0 0 0-4.22 4.219v2.11zM36 11.602v-2.11h-5.345a5.28 5.28 0 0 0-5.274 5.274h-2.11v9.492H36v-2.11h-3.165a5.141 5.141 0 0 0 .95-2.109H36v-2.11h-2.11V15.82H36v-2.11h-2.11v-2.108H36zM20.563 28.779a4.538 4.538 0 0 1 1.653-.31h5.274v-2.11h-5.274a6.687 6.687 0 0 0-4.22 1.506 6.687 6.687 0 0 0-4.22-1.505H8.503v2.11h5.275c.57 0 1.132.105 1.653.309a6.664 6.664 0 0 0-2.483 1.8 6.664 6.664 0 0 0-1.624 4.366V36h5.626V31.78h2.11V36h5.625v-1.055a6.633 6.633 0 0 0-1.631-4.366 6.768 6.768 0 0 0-2.49-1.8z"/></g><defs><clipPath id="fclip0"><path d="M0 0h36v36H0z"/></clipPath></defs></symbol><symbol viewBox="0 0 30 32" id="advantages-6" xmlns="http://www.w3.org/2000/svg"><path d="M29.097 26.8L18.762 16.55c-.1-.1-.2-.2-.3-.25l1.805-1.9c.1-.1.201-.2.251-.3 2.408.9 5.268.4 7.224-1.55C29.147 11.15 29.9 9.2 29.7 7.2c0-.2-.15-.4-.401-.5-.201-.1-.452 0-.602.15l-3.311 3.3-3.312-.9-.953-3.45 3.311-3.3c.15-.1.201-.35.15-.55-.1-.2-.25-.35-.5-.4-2.008-.2-3.964.55-5.369 1.95-1.956 1.95-2.458 4.75-1.555 7.2-.1.1-.2.15-.3.25l-2.71 2.55-4.916-4.9c-.05-.05-.15-.1-.2-.15l.15-.3c1.053.2 2.96-1.8 4.565-3.45L9.08 0C6.973 2.1 5.418 3.5 5.62 4.55c-.502.25-.903.5-1.204.8L3.763 6c-.452.45-.703.95-.803 1.5-.05.05-.15.15-.2.25l-.252.35-.05.05-.2.3c-.151.2-.251.4-.402.6-.05.05-.1.15-.15.2v.05l-.1.2c-.101.2-.252.45-.352.7v.05c-.15.3-.25.6-.351.95l-.05.15c-.05.1-.05.25-.1.35l-.1.45c-.051.3-.101.55-.101.8v.15c-.05.25 0 .5 0 .7V14.45l.05.35c0 .05 0 .15.05.2 0 .15.05.3.1.45l.251.9c.05.25.301.4.602.4.15 0 .251-.05.351-.15.05-.1.1-.2.1-.35l.101-.85c0-.05.05-.15.05-.25 0-.05.05-.15.05-.2l.1-.3c0-.05.051-.1.051-.15.1-.05.1-.1.1-.15.05-.05.05-.15.1-.2.05-.15.101-.25.201-.4.05-.05.05-.1.1-.15.101-.15.151-.3.252-.4l.2-.3.15-.15.101-.1c.1-.15.25-.3.401-.4l.05-.05c.1-.1.201-.2.352-.3.05-.05.1-.1.15-.1.05-.05.1-.1.2-.15.101-.1.202-.15.302-.2l.25-.15.252-.1c.1-.05.15-.1.25-.1.05 0 .1-.05.15-.05.051 0 .101-.05.151-.05.05 0 .1-.05.15-.05h.051c.05.1.15.25.25.35l4.867 4.85-10.334 9.9c-1.305 1.3-1.505 3.2-.201 4.45 1.304 1.3 3.06.95 4.365-.35l9.18-9.65c.05.05.1.15.15.2L24.884 31a2.944 2.944 0 0 0 4.164 0 2.936 2.936 0 0 0 .05-4.2zM3.913 29.1c-.502.5-1.254.5-1.706 0-.451-.45-.451-1.25 0-1.7.502-.45 1.255-.45 1.706 0 .452.45.452 1.25 0 1.7z"/></symbol><symbol viewBox="0 0 35 22" id="advantages-7" xmlns="http://www.w3.org/2000/svg"><path d="M33.691 14.738v-3.572c0-1.355-1.148-2.446-2.573-2.446l-1.775-.264-3.048-4.365c-.045-.034-.08-.119-.126-.153a2.684 2.684 0 0 0-2.098-1.014H18.29V1.398c0-.767-.6-1.398-1.345-1.398h-15.6C.602 0 0 .63 0 1.398V17.9c0 .793.672 1.39 1.461 1.39H3.56C4.034 20.874 5.54 22 7.36 22s3.327-1.168 3.802-2.71h12.954c.475 1.585 1.982 2.71 3.802 2.71s3.326-1.168 3.8-2.71h1.82c.834 0 1.462-.64 1.462-1.39v-1.764c0-.725-.592-1.322-1.309-1.398zM7.37 20.116c-1.111 0-1.98-.87-1.98-1.883 0-1.015.914-1.884 1.98-1.884 1.112 0 1.982.87 1.982 1.884-.01 1.014-.87 1.883-1.982 1.883zM20.996 8.592c-.098 0-.188-.077-.188-.179V4.961c0-.094.08-.18.188-.18h3.138c.063 0 .126.026.153.078l2.447 3.46c.08.12-.009.273-.152.273h-5.586zm6.922 11.524c-1.112 0-1.982-.87-1.982-1.883 0-1.015.915-1.884 1.982-1.884 1.111 0 1.98.87 1.98 1.884-.008 1.014-.914 1.883-1.98 1.883z"/></symbol><symbol viewBox="0 0 14 9" id="arrow" xmlns="http://www.w3.org/2000/svg"><g clip-path="url(#iclip0)"><path d="M14 1.678L12.396 0 7 5.644 1.604 0 0 1.678 7 9l7-7.322z"/></g><defs><clipPath id="iclip0"><path transform="rotate(90 7 7)" d="M0 0h9v14H0z"/></clipPath></defs></symbol><symbol viewBox="0 0 12 17" id="arrow-left" xmlns="http://www.w3.org/2000/svg"><g clip-path="url(#jclip0)"><path d="M9.763 17L12 15.052 4.475 8.5 12 1.948 9.763 0 0 8.5 9.763 17z"/></g><defs><clipPath id="jclip0"><path transform="rotate(-180 6 8.5)" d="M0 0h12v17H0z"/></clipPath></defs></symbol><symbol viewBox="0 0 12 17" id="arrow-right" xmlns="http://www.w3.org/2000/svg"><g clip-path="url(#kclip0)"><path d="M2.237 0L0 1.948 7.525 8.5 0 15.052 2.237 17 12 8.5 2.237 0z"/></g><defs><clipPath id="kclip0"><path d="M0 0h12v17H0z"/></clipPath></defs></symbol><symbol viewBox="0 0 18 19" id="contacts-day" xmlns="http://www.w3.org/2000/svg"><path d="M6.504 10.221a.422.422 0 0 0-.42-.422H4.629c-.23 0-.419.19-.419.422v1.466c0 .233.189.423.42.423h1.456c.23 0 .42-.19.42-.423v-1.466zM10.148 10.221a.422.422 0 0 0-.42-.422H8.272c-.231 0-.42.19-.42.422v1.466c0 .233.189.423.42.423h1.456c.231 0 .42-.19.42-.423v-1.466zM13.791 10.221a.422.422 0 0 0-.42-.422h-1.456c-.23 0-.42.19-.42.422v1.466c0 .233.19.423.42.423h1.457c.23 0 .419-.19.419-.423v-1.466zM6.504 13.895a.422.422 0 0 0-.42-.423H4.629c-.23 0-.419.19-.419.423v1.466c0 .232.189.422.42.422h1.456c.23 0 .42-.19.42-.422v-1.466zM10.148 13.895a.422.422 0 0 0-.42-.423H8.272c-.231 0-.42.19-.42.423v1.466c0 .232.189.422.42.422h1.456c.231 0 .42-.19.42-.422v-1.466zM13.791 13.895a.422.422 0 0 0-.42-.423h-1.456c-.23 0-.42.19-.42.423v1.466c0 .232.19.422.42.422h1.457c.23 0 .419-.19.419-.422v-1.466z"/><path d="M16.398 2.065v2.24a1.825 1.825 0 0 1-1.825 1.831h-1.15a1.833 1.833 0 0 1-1.833-1.832V2.055H6.41v2.25c0 1.015-.83 1.831-1.833 1.831h-1.15a1.828 1.828 0 0 1-1.824-1.832v-2.24A1.664 1.664 0 0 0 0 3.726V16.86c0 .916.74 1.67 1.65 1.67h14.7c.91 0 1.65-.754 1.65-1.67V3.726c0-.902-.726-1.638-1.602-1.661zm-.538 13.98c0 .398-.32.716-.711.716H2.819a.713.713 0 0 1-.712-.717V9.258c0-.398.32-.716.712-.716h12.33c.395 0 .711.323.711.716v6.786z"/><path d="M3.422 4.935h1.136a.632.632 0 0 0 .627-.631V.63A.629.629 0 0 0 4.558 0H3.422a.629.629 0 0 0-.627.631v3.673c0 .346.278.631.627.631zM13.41 4.935h1.135c.344 0 .627-.28.627-.631V.63A.629.629 0 0 0 14.545 0H13.41a.629.629 0 0 0-.627.631v3.673c0 .346.283.631.627.631z"/></symbol><symbol viewBox="0 0 18 26" id="contacts-location" xmlns="http://www.w3.org/2000/svg"><g clip-path="url(#mclip0)"><path d="M8.998 0C4.038 0 0 4.095 0 9.125c0 6.246 8.051 15.416 8.396 15.8a.8.8 0 0 0 1.203 0c.345-.39 8.396-9.554 8.396-15.8C18 4.095 13.962 0 8.998 0zm0 13.717c-2.495 0-4.528-2.062-4.528-4.592s2.033-4.592 4.528-4.592c2.494 0 4.527 2.062 4.527 4.592s-2.028 4.592-4.527 4.592z"/></g><defs><clipPath id="mclip0"><path d="M0 0h18v25.2H0z"/></clipPath></defs></symbol><symbol viewBox="0 0 18 15" id="contacts-mail" xmlns="http://www.w3.org/2000/svg"><g clip-path="url(#nclip0)"><path d="M1.726 4.388c.231.155.91.635 2.065 1.441 1.14.807 2.019 1.411 2.635 1.845.062.047.216.155.432.31.216.156.4.28.54.388.138.093.323.202.523.326s.4.217.57.279c.185.062.355.093.509.093h.015c.155 0 .324-.031.509-.093s.37-.155.57-.28c.2-.123.386-.232.524-.325.139-.093.324-.232.54-.388.215-.155.354-.263.431-.31.617-.434 2.188-1.519 4.7-3.286.493-.341.894-.76 1.218-1.24.323-.481.493-.993.493-1.52 0-.45-.154-.822-.478-1.147C17.2.17 16.83 0 16.397 0H1.603C1.094 0 .693.17.416.527.14.868 0 1.317 0 1.845c0 .419.185.884.555 1.38.37.496.755.884 1.171 1.163z"/><path d="M16.998 5.473a208.149 208.149 0 0 0-5.008 3.473c-.386.279-.694.511-.925.666a4.964 4.964 0 0 1-.955.481c-.401.17-.771.248-1.11.248h-.015c-.34 0-.71-.077-1.11-.248a5.26 5.26 0 0 1-.94-.48c-.231-.156-.555-.373-.925-.667-.909-.667-2.573-1.83-4.993-3.489A5.1 5.1 0 0 1 0 4.574v8.03c0 .45.154.822.478 1.148.308.31.693.48 1.14.48h14.78c.446 0 .816-.154 1.14-.48.308-.31.477-.698.477-1.147V4.589c-.308.326-.631.62-1.017.884z"/></g><defs><clipPath id="nclip0"><path d="M0 0h18v14.233H0z"/></clipPath></defs></symbol><symbol viewBox="0 0 20 21" id="contacts-phone" xmlns="http://www.w3.org/2000/svg"><path d="M15.207 13.235c-.656-.645-1.468-.645-2.119 0-.494.49-.989.984-1.478 1.484-.135.135-.244.166-.406.072-.322-.176-.66-.317-.968-.51-1.436-.905-2.639-2.066-3.706-3.372-.53-.65-.999-1.343-1.327-2.129-.067-.156-.052-.26.073-.39.494-.479.979-.968 1.468-1.463.676-.682.676-1.483-.005-2.17-.386-.39-.776-.776-1.161-1.166-.4-.4-.796-.801-1.197-1.197-.656-.635-1.468-.635-2.118.005-.5.49-.979.994-1.489 1.478-.468.448-.708.99-.76 1.63-.078 1.035.177 2.014.531 2.966.729 1.978 1.842 3.732 3.196 5.34a19.717 19.717 0 0 0 6.563 5.132c1.15.557 2.342.989 3.633 1.056.89.052 1.665-.177 2.284-.869.427-.473.906-.905 1.354-1.363.666-.677.671-1.489.01-2.155a507.996 507.996 0 0 0-2.379-2.379zM14.41 9.92l1.536-.26a6.834 6.834 0 0 0-1.92-3.706 6.829 6.829 0 0 0-3.915-1.952l-.218 1.546a5.281 5.281 0 0 1 3.029 1.51A5.232 5.232 0 0 1 14.41 9.92zM16.815 3.243A11.349 11.349 0 0 0 10.319 0l-.218 1.546a9.817 9.817 0 0 1 5.61 2.8 9.841 9.841 0 0 1 2.754 5.309L20 9.395a11.39 11.39 0 0 0-3.185-6.152z"/></symbol><symbol viewBox="0 0 18 22" id="download" xmlns="http://www.w3.org/2000/svg"><path d="M17.966 11.764a.43.43 0 0 0-.399-.273H12.87V.443A.438.438 0 0 0 12.44 0H5.577a.438.438 0 0 0-.43.443v11.052H.43a.434.434 0 0 0-.399.273.457.457 0 0 0 .093.481l8.559 8.843c.08.083.189.128.306.128a.436.436 0 0 0 .305-.128l8.583-8.847a.448.448 0 0 0 .089-.48z"/></symbol><symbol viewBox="0 0 44 44" id="ok" xmlns="http://www.w3.org/2000/svg"><path d="M12.989 17.811L9.926 20.91l9.892 9.891 21.964-22-3.097-3.098L19.782 24.64l-6.793-6.829zM39.6 22c0 9.68-7.92 17.6-17.6 17.6-9.68 0-17.6-7.92-17.6-17.6 0-9.68 7.92-17.6 17.6-17.6 1.76 0 3.309.211 4.858.669l3.52-3.52C27.702.669 24.85 0 22 0 9.891 0 0 9.891 0 22s9.891 22 22 22 22-9.891 22-22h-4.4z"/></symbol><symbol viewBox="0 0 15 15" id="phone" xmlns="http://www.w3.org/2000/svg"><path d="M14.976 11.819a.722.722 0 0 1-.224.635l-2.109 2.092c-.094.107-.22.195-.373.27a1.47 1.47 0 0 1-.453.142l-.094.006a1.914 1.914 0 0 1-.207.007c-.201 0-.525-.036-.976-.104-.45-.068-.997-.236-1.649-.509-.65-.268-1.386-.673-2.212-1.214-.827-.538-1.704-1.28-2.634-2.22a17.577 17.577 0 0 1-1.84-2.092 15.035 15.035 0 0 1-1.173-1.847 10.249 10.249 0 0 1-.668-1.539 8.726 8.726 0 0 1-.3-1.186 4.105 4.105 0 0 1-.066-.784c.01-.19.016-.295.016-.317.023-.15.069-.298.143-.454.075-.152.165-.278.269-.372L2.538.223A.7.7 0 0 1 3.047 0c.136 0 .26.039.366.12.107.078.194.178.269.295l1.698 3.22a.759.759 0 0 1 .077.554c-.042.2-.133.37-.269.509l-.777.777a.256.256 0 0 0-.055.104.382.382 0 0 0-.023.12c.042.223.136.476.285.761.127.253.324.564.587.927.265.366.638.784 1.127 1.26.476.486.897.865 1.27 1.134.37.269.68.466.927.596.249.126.437.204.57.23l.197.039a.352.352 0 0 0 .104-.023.302.302 0 0 0 .104-.055l.904-.92a.974.974 0 0 1 .667-.253c.181 0 .324.033.428.094h.016l3.061 1.808c.22.133.354.308.396.522z"/></symbol><symbol viewBox="0 0 19 19" id="search" xmlns="http://www.w3.org/2000/svg"><path fill-rule="evenodd" clip-rule="evenodd" d="M18.461 16.222l-4.112-4.11c-.018-.018-.047-.037-.066-.056a7.703 7.703 0 0 0 1.286-4.27A7.788 7.788 0 0 0 7.779 0 7.778 7.778 0 0 0 0 7.776c0 4.299 3.488 7.776 7.78 7.776a7.69 7.69 0 0 0 4.272-1.285c.02.019.038.047.057.066l4.112 4.11a1.592 1.592 0 0 0 2.24 0 1.551 1.551 0 0 0 0-2.22zM7.78 12.86a5.086 5.086 0 0 1-5.086-5.083 5.086 5.086 0 0 1 10.171 0 5.086 5.086 0 0 1-5.085 5.083z"/></symbol><symbol viewBox="0 0 41 29" id="typog" xmlns="http://www.w3.org/2000/svg"><path d="M2.924 29h8.784l5.862-11.597V0H0v17.403h8.785L2.924 29zm23.43 0h8.785L41 17.403V0H23.43v17.403h8.785L26.355 29z"/></symbol><symbol viewBox="0 0 27 29" id="wood-1" xmlns="http://www.w3.org/2000/svg"><path d="M.527 18.082L15.04.797h7.832V17.77h3.574v5.78h-3.574V29h-7.52v-5.45H1.798l-1.27-5.468zm8.145-.273h6.68V9.762l-6.68 8.047z"/></symbol><symbol viewBox="0 0 36 36" id="wood-2" xmlns="http://www.w3.org/2000/svg"><path d="M5.252 23.07c-.204.407-.126.9.197 1.216l.26.26a45.376 45.376 0 0 1 2.665-2.897c.077-.077.148-.112.225-.176l-1.66-1.659c-.963 1.744-1.525 2.932-1.687 3.255zM14.344 27.619a47.733 47.733 0 0 1-2.89 2.671l.352.352c.323.323.822.4 1.23.19.549-.282 1.406-.69 3.227-1.702l-1.736-1.736c-.07.07-.106.147-.183.225zM13.781 22.212c-.759-.76-2.903-.078-3.909.928-3.375 3.368-4.893 5.758-5.576 7.172-.196.4-.112.886.204 1.202.317.316.802.4 1.21.204 1.378-.668 3.74-2.187 7.143-5.59 1.104-1.11 1.653-3.192.928-3.916zM3.291 14.042L.31 17.022a1.053 1.053 0 0 0 1.02 1.766c1.61-.43 3.03-.612 3.986-.373a55.882 55.882 0 0 1 4.366-6.659c-.9-.57-3.853-.253-6.391 2.286zM17.852 35.887c.408.204.9.127 1.217-.197l2.98-2.981c2.307-2.313 2.715-5.288 2.195-6.237-2.25 1.702-4.535 3.129-6.666 4.331.148.83.05 1.639-.295 3.987-.07.457.168.893.57 1.097zM20.939 10.582a3.17 3.17 0 0 0 0 4.472 3.17 3.17 0 0 0 4.472 0 3.17 3.17 0 0 0 0-4.472 3.157 3.157 0 0 0-4.472 0zM35.937 1.027a1.043 1.043 0 0 0-.97-.97c-2.595-.198-5.176.126-7.7.9.19 1.736 1.09 3.62 2.623 5.153 1.554 1.554 3.487 2.454 5.252 2.616a21.728 21.728 0 0 0 .794-7.7z"/><path d="M28.4 7.594c-1.759-1.758-2.827-3.86-3.172-5.907-6.335 2.595-12.396 8.27-17.184 16.235l2.383 2.384c1.625-.66 3.6-.837 4.852.415 1.252 1.251 1.076 3.227.415 4.851l2.46 2.461c6.132-3.698 13.269-9.513 16.306-17.261-2.11-.317-4.282-1.392-6.06-3.178zm-1.491 8.95c-2.053 2.053-5.4 2.053-7.46 0-2.054-2.053-2.054-5.4 0-7.46 2.053-2.053 5.4-2.053 7.46 0 2.053 2.06 2.053 5.407 0 7.46z"/></symbol><symbol viewBox="0 0 32 33" id="wood-3" xmlns="http://www.w3.org/2000/svg"><path d="M11.563 17.996a.746.746 0 0 0-.746-.744H8.228a.746.746 0 0 0-.746.744v2.582c0 .409.336.743.746.743h2.59c.41 0 .745-.334.745-.743v-2.582zM18.04 17.996a.746.746 0 0 0-.745-.744h-2.59a.746.746 0 0 0-.745.744v2.582c0 .409.335.743.746.743h2.589c.41 0 .746-.334.746-.743v-2.582zM24.517 17.996a.746.746 0 0 0-.746-.744h-2.589a.746.746 0 0 0-.745.744v2.582c0 .409.335.743.745.743h2.59c.41 0 .745-.334.745-.743v-2.582zM11.563 24.462a.746.746 0 0 0-.746-.744H8.228a.746.746 0 0 0-.746.744v2.581c0 .41.336.744.746.744h2.59c.41 0 .745-.334.745-.744v-2.581zM18.04 24.462a.746.746 0 0 0-.745-.744h-2.59a.746.746 0 0 0-.745.744v2.581c0 .41.335.744.746.744h2.589c.41 0 .746-.334.746-.744v-2.581zM24.517 24.462a.746.746 0 0 0-.746-.743h-2.59a.746.746 0 0 0-.745.743v2.582c0 .41.335.743.746.743h2.589c.41 0 .746-.334.746-.743v-2.582z"/><path d="M29.15 3.634v3.944a3.228 3.228 0 0 1-3.242 3.225h-2.044c-1.794 0-3.26-1.437-3.26-3.225v-3.96h-9.208v3.96c0 1.788-1.475 3.225-3.26 3.225H6.092c-1.785 0-3.243-1.437-3.243-3.225V3.634C1.282 3.684 0 4.971 0 6.558v23.126a2.946 2.946 0 0 0 2.933 2.94h26.134A2.946 2.946 0 0 0 32 29.685V6.558c0-1.587-1.29-2.882-2.85-2.924zm-.954 24.613c0 .702-.57 1.261-1.266 1.261H5.01a1.262 1.262 0 0 1-1.265-1.261V16.3c0-.702.57-1.262 1.266-1.262h21.92c.703 0 1.264.568 1.264 1.262v11.947z"/><path d="M6.084 8.689h2.019c.612 0 1.114-.502 1.114-1.111V1.11C9.217.493 8.715 0 8.103 0h-2.02C5.473 0 4.97.493 4.97 1.111v6.467c0 .61.495 1.11 1.115 1.11zM23.838 8.689h2.02c.612 0 1.114-.493 1.114-1.111V1.11c0-.61-.494-1.111-1.114-1.111h-2.02c-.611 0-1.114.493-1.114 1.111v6.467c0 .61.503 1.11 1.114 1.11z"/></symbol><symbol viewBox="0 0 33 33" id="wood-4" xmlns="http://www.w3.org/2000/svg"><g clip-path="url(#xclip0)"><path d="M3.03 19.465H.967a.966.966 0 0 0-.967.967v11.601c0 .535.432.967.967.967H3.03a2.905 2.905 0 0 0 2.9-2.9v-7.735c0-1.598-1.301-2.9-2.9-2.9zM32.717 21.34a1.773 1.773 0 0 0-.445-.483c-.71-.625-1.915-.56-2.61.194l-4.391 5.066-.135.154c-.542.6-1.316.928-2.128.928h-7.504a.958.958 0 0 1-.967-.966c0-.542.426-.967.967-.967h5.899a1.94 1.94 0 0 0 1.934-1.934v-.02a1.935 1.935 0 0 0-1.934-1.913h-3.5c-.58 0-1.2-.213-1.702-.639-2.36-2.068-5.802-2.204-8.336-.444v11.891c1.915.523 3.887.793 5.88.793h8.625a6.778 6.778 0 0 0 5.415-2.707l4.642-6.187c.677-.89.728-2.108.29-2.765zM13.828 16.216c.793.67 1.611 1.36 2.482 2.114.18.155.406.239.631.239a.943.943 0 0 0 .632-.238c.87-.755 1.69-1.444 2.482-2.115 1.373-1.16 2.566-2.165 3.597-3.139 2.005-1.888 3.855-4.034 3.855-6.902 0-1.631-.56-3.159-1.58-4.306A5.525 5.525 0 0 0 21.745 0c-1.818 0-3.39.857-4.551 2.481-.09.123-.168.245-.245.361-.078-.122-.155-.245-.245-.36C15.536.856 13.963 0 12.145 0a5.525 5.525 0 0 0-4.184 1.87c-1.018 1.14-1.58 2.674-1.58 4.305 0 1.772.69 3.41 2.167 5.15 1.29 1.52 3.14 3.08 5.28 4.891z"/></g><defs><clipPath id="xclip0"><path d="M0 0h33v33H0z"/></clipPath></defs></symbol><symbol viewBox="0 0 34 34" id="wood-5" xmlns="http://www.w3.org/2000/svg"><path d="M17 0C7.606 0 0 7.606 0 17s7.606 17 17 17 17-7.606 17-17S26.394 0 17 0zm-6.582 3.978c-.305.425-.6.871-.872 1.362a18.558 18.558 0 0 0-1.133 2.386 36.053 36.053 0 0 1-2.103-.654 14.88 14.88 0 0 1 4.108-3.094zM4.555 9.394c.992.37 2.005.697 3.019.98a26.762 26.762 0 0 0-.763 5.242H2.474c.218-2.267.948-4.38 2.081-6.222zm0 15.212a14.494 14.494 0 0 1-2.081-6.222H6.81c.087 1.82.349 3.585.763 5.242-1.014.283-2.016.61-3.019.98zm1.766 2.322c.697-.24 1.394-.458 2.103-.654.327.839.708 1.645 1.133 2.386.272.49.567.937.872 1.362a14.564 14.564 0 0 1-4.108-3.094zm9.295 3.944c-1.776-.664-3.356-2.582-4.446-5.22a32.273 32.273 0 0 1 4.446-.5v5.72zm0-8.51a36.63 36.63 0 0 0-5.329.62 24.19 24.19 0 0 1-.686-4.598h6.015v3.977zm0-6.746H9.59a24.19 24.19 0 0 1 .686-4.599c1.766.349 3.542.556 5.33.632v3.967h.01zm0-6.756a32.092 32.092 0 0 1-4.446-.502c1.1-2.637 2.67-4.555 4.446-5.22V8.86zm13.829.534a14.496 14.496 0 0 1 2.081 6.222H27.19a27.007 27.007 0 0 0-.763-5.242 38.979 38.979 0 0 0 3.019-.98zM27.68 7.072c-.698.24-1.395.458-2.104.654a17.825 17.825 0 0 0-1.133-2.386c-.273-.49-.567-.937-.872-1.362a14.564 14.564 0 0 1 4.108 3.094zm-9.296-3.944c1.776.664 3.356 2.582 4.446 5.22a32.282 32.282 0 0 1-4.446.5v-5.72zm0 8.51a35.201 35.201 0 0 0 5.329-.632c.36 1.428.6 2.975.686 4.6h-6.015v-3.967zm0 6.746h6.026a24.194 24.194 0 0 1-.686 4.599 33.845 33.845 0 0 0-5.33-.622v-3.977h-.01zm0 12.488V25.14c1.493.066 2.975.23 4.446.502-1.09 2.648-2.659 4.555-4.446 5.23zm5.198-.85c.305-.425.6-.871.872-1.362a18.56 18.56 0 0 0 1.133-2.386c.709.196 1.406.414 2.103.654a14.878 14.878 0 0 1-4.108 3.094zm5.863-5.416a38.983 38.983 0 0 0-3.019-.98c.414-1.646.676-3.411.763-5.242h4.337a14.496 14.496 0 0 1-2.081 6.222z"/></symbol></svg>